<svg width="15" height="18" viewBox="0 0 15 18" fill="none" xmlns="http://www.w3.org/2000/svg">
<path d="M14.2721 10.0715C14.2721 11.4828 13.8535 12.8625 13.0694 14.036C12.2853 15.2095 11.1708 16.1242 9.86688 16.6643C8.56294 17.2044 7.12812 17.3457 5.74386 17.0704C4.35961 16.795 3.08809 16.1154 2.0901 15.1174C1.0921 14.1194 0.412462 12.8479 0.137117 11.4636C-0.138229 10.0794 0.00308873 8.64456 0.543198 7.34062C1.08331 6.03668 1.99795 4.92218 3.17147 4.13806C4.34498 3.35395 5.72466 2.93542 7.13603 2.93542V4.89749C6.11272 4.89749 5.11238 5.20093 4.26153 5.76946C3.41067 6.33798 2.74751 7.14605 2.35591 8.09147C1.9643 9.03689 1.86184 10.0772 2.06148 11.0809C2.26112 12.0845 2.75389 13.0064 3.47748 13.73C4.20108 14.4536 5.12299 14.9464 6.12664 15.146C7.13029 15.3457 8.17061 15.2432 9.11603 14.8516C10.0614 14.46 10.8695 13.7968 11.438 12.946C12.0066 12.0951 12.31 11.0948 12.31 10.0715H14.2721Z" fill="#0066FF"/>
<path d="M12.2715 4L6.27148 7.4641L6.27148 0.535898L12.2715 4Z" fill="#0066FF"/>
</svg>
