<svg width="20" height="14" viewBox="0 0 20 14" fill="none" xmlns="http://www.w3.org/2000/svg">
<path d="M3.06915 1.16052C4.34389 0.623368 5.71084 0.227615 7.14008 0.000950826C7.16611 -0.00342372 7.19211 0.00750851 7.20552 0.0293735C7.38132 0.316529 7.57606 0.691146 7.71242 0.985594C9.24966 0.774239 10.779 0.774239 12.2847 0.985594C12.4211 0.684601 12.6229 0.316529 12.7995 0.0293735C12.8129 0.00823803 12.8389 -0.0026942 12.865 0.000950826C14.2934 0.226891 15.6604 0.622643 16.9359 1.16052C16.9469 1.1649 16.9564 1.17219 16.9627 1.18166C19.5555 4.73909 20.2658 8.20908 19.9173 11.636C19.9158 11.6528 19.9055 11.6688 19.8913 11.679C18.1807 12.8328 16.5236 13.5332 14.8973 13.9974C14.8712 14.0047 14.8437 13.996 14.8271 13.9763C14.4424 13.4938 14.0995 12.9851 13.8054 12.4501C13.7881 12.4188 13.8046 12.3816 13.8401 12.3692C14.3841 12.1797 14.902 11.9487 15.4002 11.6863C15.4396 11.6652 15.4428 11.6134 15.4065 11.5887C15.3017 11.5165 15.1968 11.4414 15.0967 11.3656C15.0786 11.3518 15.0534 11.3489 15.0321 11.3576C11.7589 12.73 8.21538 12.73 4.98087 11.3576C4.95958 11.3481 4.93434 11.3511 4.91544 11.3649C4.81529 11.4407 4.71045 11.5165 4.60482 11.5887C4.56856 11.6134 4.57093 11.6652 4.61034 11.6863C5.10856 11.9538 5.62651 12.1797 6.17124 12.3685C6.2067 12.3809 6.22248 12.4188 6.20513 12.4501C5.90479 12.9844 5.56186 13.4931 5.18425 13.9756C5.16848 13.996 5.14011 14.0047 5.11408 13.9974C3.47989 13.5332 1.82282 12.8328 0.112141 11.679C0.0971548 11.6688 0.0876901 11.6535 0.0861126 11.6368C-0.330901 7.67482 0.784591 4.23329 3.04315 1.18238C3.04868 1.17219 3.05811 1.1649 3.06915 1.16052ZM13.3166 9.54938C14.3021 9.54938 15.1141 8.71853 15.1141 7.69815C15.1141 6.67778 14.3178 5.84693 13.3166 5.84693C12.3076 5.84693 11.5035 6.68508 11.5193 7.69815C11.5193 8.71853 12.3155 9.54938 13.3166 9.54938ZM6.67104 9.54938C7.65645 9.54938 8.46842 8.71853 8.46842 7.69815C8.46842 6.67778 7.67223 5.84693 6.67104 5.84693C5.66197 5.84693 4.85789 6.68508 4.87363 7.69815C4.87363 8.71853 5.66197 9.54938 6.67104 9.54938Z" fill="white"/>
</svg>
