<svg width="16" height="19" viewBox="0 0 16 19" fill="none" xmlns="http://www.w3.org/2000/svg">
<path d="M5.91621 10.7706C5.91621 11.5161 5.04194 11.8896 4.53099 11.3623L2.93194 9.71328C2.48988 9.2574 1.77342 9.2574 1.33136 9.71328C0.924882 10.1325 0.887792 10.7999 1.24545 11.2644L5.30838 16.5405C6.33557 17.5998 7.75485 18.2551 9.32287 18.2551C12.4582 18.2551 15 15.6338 15 12.4005V6.15564C15 5.50891 14.4917 4.98473 13.8646 4.98473C13.2374 4.98473 12.7291 5.50891 12.7291 6.15564V9.6684V3.81381C12.7291 3.16707 12.2209 2.64289 11.5937 2.64289C10.9666 2.64289 10.4583 3.16707 10.4583 3.81381V8.88779V8.10717V2.25258C10.4583 1.60585 9.95 1.08167 9.32287 1.08167C8.69574 1.08167 8.18745 1.60585 8.18745 2.25258V8.10717V8.88779V3.0332C8.18745 2.38646 7.67915 1.86228 7.05202 1.86228C6.42489 1.86228 5.91659 2.38646 5.91659 3.0332V8.88779L5.91621 10.7706Z" fill="#0066FF" stroke="#181818" stroke-width="0.75" stroke-miterlimit="10" stroke-linecap="round" stroke-linejoin="round"/>
</svg>
