<svg width="18" height="18" viewBox="0 0 18 18" fill="none" xmlns="http://www.w3.org/2000/svg">
<path d="M12.6 16.5V16V16.5ZM5.4 16.5V17V16.5ZM3 14.1H2.5H3ZM3 3.9H3.5H3ZM3.16349 2.31901L2.71799 2.09202L2.71799 2.09202L3.16349 2.31901ZM5.4 1.5L5.4 2L5.4 1.5ZM3.81902 1.66349L3.59202 1.21799L3.59202 1.21799L3.81902 1.66349ZM3.81901 16.3365L3.59202 16.782H3.59202L3.81901 16.3365ZM3.16349 15.681L3.60899 15.454H3.60899L3.16349 15.681ZM14.181 16.3365L13.954 15.891H13.954L14.181 16.3365ZM15 14.1L15.5 14.1V14.1H15ZM14.8365 15.681L14.391 15.454L14.8365 15.681ZM15.5 6C15.5 5.72386 15.2761 5.5 15 5.5C14.7239 5.5 14.5 5.72386 14.5 6H15.5ZM10.5 2C10.7761 2 11 1.77614 11 1.5C11 1.22386 10.7761 1 10.5 1V2ZM14.872 5.87197L15.2255 5.51841L14.872 5.87197ZM10.628 1.62803L10.2745 1.98159V1.98159L10.628 1.62803ZM14.8189 6V6.5V6ZM11.25 6V5.5V6ZM10.5 5.25L11 5.25V5.25H10.5ZM10.5 1.68107L10 1.68107V1.68107H10.5ZM6 8.5C5.72386 8.5 5.5 8.72386 5.5 9C5.5 9.27614 5.72386 9.5 6 9.5V8.5ZM12 9.5C12.2761 9.5 12.5 9.27614 12.5 9C12.5 8.72386 12.2761 8.5 12 8.5V9.5ZM6 5.5C5.72386 5.5 5.5 5.72386 5.5 6C5.5 6.27614 5.72386 6.5 6 6.5V5.5ZM7.5 6.5C7.77614 6.5 8 6.27614 8 6C8 5.72386 7.77614 5.5 7.5 5.5V6.5ZM6 11.5C5.72386 11.5 5.5 11.7239 5.5 12C5.5 12.2761 5.72386 12.5 6 12.5V11.5ZM12 12.5C12.2761 12.5 12.5 12.2761 12.5 12C12.5 11.7239 12.2761 11.5 12 11.5V12.5ZM12.6 16H5.4V17H12.6V16ZM3.5 14.1L3.5 3.9H2.5L2.5 14.1H3.5ZM3.5 3.9C3.5 3.47171 3.50039 3.18056 3.51878 2.95552C3.53669 2.73631 3.56915 2.62421 3.60899 2.54601L2.71799 2.09202C2.59434 2.33469 2.54506 2.59304 2.5221 2.87409C2.49961 3.1493 2.5 3.48821 2.5 3.9H3.5ZM5.4 1C4.98821 1 4.6493 0.999611 4.37409 1.0221C4.09304 1.04506 3.83469 1.09434 3.59202 1.21799L4.04601 2.10899C4.12421 2.06915 4.23631 2.03669 4.45552 2.01878C4.68056 2.00039 4.97171 2 5.4 2L5.4 1ZM3.60899 2.54601C3.70487 2.35785 3.85785 2.20487 4.04601 2.10899L3.59202 1.21799C3.2157 1.40973 2.90974 1.71569 2.71799 2.09202L3.60899 2.54601ZM5.4 16C4.97171 16 4.68056 15.9996 4.45552 15.9812C4.23631 15.9633 4.12421 15.9309 4.04601 15.891L3.59202 16.782C3.83469 16.9057 4.09304 16.9549 4.37409 16.9779C4.6493 17.0004 4.98821 17 5.4 17V16ZM2.5 14.1C2.5 14.5118 2.49961 14.8507 2.5221 15.1259C2.54506 15.407 2.59434 15.6653 2.71799 15.908L3.60899 15.454C3.56915 15.3758 3.53669 15.2637 3.51878 15.0445C3.50039 14.8194 3.5 14.5283 3.5 14.1H2.5ZM4.04601 15.891C3.85785 15.7951 3.70487 15.6422 3.60899 15.454L2.71799 15.908C2.90973 16.2843 3.21569 16.5903 3.59202 16.782L4.04601 15.891ZM12.6 17C13.0118 17 13.3507 17.0004 13.6259 16.9779C13.907 16.9549 14.1653 16.9057 14.408 16.782L13.954 15.891C13.8758 15.9309 13.7637 15.9633 13.5445 15.9812C13.3194 15.9996 13.0283 16 12.6 16V17ZM14.5 14.1C14.5 14.5283 14.4996 14.8194 14.4812 15.0445C14.4633 15.2637 14.4309 15.3758 14.391 15.454L15.282 15.908C15.4057 15.6653 15.4549 15.407 15.4779 15.1259C15.5004 14.8507 15.5 14.5118 15.5 14.1L14.5 14.1ZM14.408 16.782C14.7843 16.5903 15.0903 16.2843 15.282 15.908L14.391 15.454C14.2951 15.6422 14.1422 15.7951 13.954 15.891L14.408 16.782ZM14.5 6V14.1H15.5V6H14.5ZM5.4 2L10.5 2V1L5.4 1L5.4 2ZM15.2255 5.51841L10.9816 1.27448L10.2745 1.98159L14.5184 6.22552L15.2255 5.51841ZM14.8189 5.5L11.25 5.5V6.5L14.8189 6.5V5.5ZM11 5.25V1.68107H10V5.25H11ZM11.25 5.5C11.1119 5.5 11 5.38807 11 5.25L10 5.25C10 5.94036 10.5596 6.5 11.25 6.5V5.5ZM10.9816 1.27448C10.6194 0.912251 10 1.1688 10 1.68107L11 1.68107C11 2.0597 10.5422 2.24932 10.2745 1.98159L10.9816 1.27448ZM14.5184 6.22552C14.2507 5.95778 14.4403 5.5 14.8189 5.5V6.5C15.3312 6.5 15.5878 5.88065 15.2255 5.51841L14.5184 6.22552ZM6 9.5H12V8.5H6V9.5ZM6 6.5H7.5V5.5H6V6.5ZM6 12.5H12V11.5H6V12.5Z" fill="white"/>
</svg>
