<svg id="Слой_1" data-name="Слой 1" xmlns="http://www.w3.org/2000/svg" viewBox="0 0 708.7 663.1"><defs><style>.cls-1{fill:#3f00ba;}.cls-2{fill:#6a1dff;}</style></defs><path class="cls-1" d="M673.44,227.09l33.58,256s16.79,56-56,95.15C597.72,607,499.27,659.75,450.51,685.89a189.58,189.58,0,0,1-75.69,22.16c-23.27,1.71-51.12,1.22-73.49-6.66C253.66,684.6,35.38,560.74,35.38,560.74S-9.4,540.52,1.8,449.53C14.17,348.92,35.52,227.09,35.52,227.09Z" transform="translate(0 -45.75)"/><path class="cls-2" d="M627.88,175.1C535,124.56,446.76,78.5,431,70.21c-1.4-.72-2.66-1.63-4.14-2.23C360,40.94,343.22,35.34,282,69.39c-1.4.78-2.74,1.52-4.14,2.24-15.78,8.29-104,54.35-196.9,104.89-89.72,48.81-22.39,80.88-4.2,88.16,3.86,1.51,7.61,3.24,11.31,5.09L298.5,375.27c39.12,18.29,72.7,18.29,111.82-1.42l210.45-105.5c3.7-1.85,7.45-3.58,11.31-5.09C650.27,256,717.6,223.91,627.88,175.1Z" transform="translate(0 -45.75)"/><path class="cls-2" d="M354.42,417.57c5.79,21.91,8.79,43.81,10.95,65.72s3,43.82,3,65.72-.94,43.82-3,65.72-5.18,43.81-11,65.72c-5.83-21.91-8.84-43.82-11-65.72s-3-43.82-3-65.73,1-43.81,3-65.71S348.63,439.47,354.42,417.57Z" transform="translate(0 -45.75)"/></svg>