<svg width="17" height="17" viewBox="0 0 17 17" fill="none" xmlns="http://www.w3.org/2000/svg">
<path d="M2.82003 1.36331L3.27402 2.25432L3.27402 2.25432L2.82003 1.36331ZM1.36331 2.82003L0.472305 2.36604L0.472305 2.36604L1.36331 2.82003ZM14.18 15.6367L14.634 16.5277L14.634 16.5277L14.18 15.6367ZM15.6367 14.18L14.7457 13.726L14.7457 13.726L15.6367 14.18ZM2.82003 15.6367L3.27402 14.7457L3.27402 14.7457L2.82003 15.6367ZM1.36331 14.18L2.25432 13.726L2.25432 13.726L1.36331 14.18ZM17 8.5C17 7.94772 16.5523 7.5 16 7.5C15.4477 7.5 15 7.94772 15 8.5H17ZM8.5 2C9.05228 2 9.5 1.55228 9.5 1C9.5 0.447715 9.05228 0 8.5 0V2ZM8.71102 7.24716L9.6597 7.56338L9.6597 7.56338L8.71102 7.24716ZM9.09668 6.09018L8.148 5.77395L8.148 5.77395L9.09668 6.09018ZM9.49462 5.44629L10.2017 6.1534L10.2017 6.1534L9.49462 5.44629ZM13.3378 1.60309L12.6307 0.895983L12.6307 0.895985L13.3378 1.60309ZM15.3969 3.66218L16.104 4.36928L16.104 4.36928L15.3969 3.66218ZM11.5537 7.50538L10.8466 6.79827L10.8466 6.79827L11.5537 7.50538ZM10.9098 7.90332L11.2261 8.852L11.2261 8.852L10.9098 7.90332ZM9.75284 8.28898L10.0691 9.23766L10.0691 9.23766L9.75284 8.28898ZM11.3426 7.7024L11.9449 8.50071L11.9449 8.50071L11.3426 7.7024ZM11.1804 7.80263L10.7357 6.90696L10.7357 6.90696L11.1804 7.80263ZM15.3969 1.60309L14.6898 2.3102L14.6898 2.3102L15.3969 1.60309ZM15.8929 2.1755L16.789 1.73149L16.789 1.73149L15.8929 2.1755ZM15.8929 3.08977L16.789 3.53378L16.789 3.53378L15.8929 3.08977ZM13.9102 1.10705L14.3542 2.00307L14.3542 2.00307L13.9102 1.10705ZM14.8245 1.10705L14.3805 2.00307L14.3805 2.00307L14.8245 1.10705ZM9.19737 5.81956L10.093 6.26427L10.093 6.26427L9.19737 5.81956ZM9.2976 5.65737L8.49929 5.05513L8.49929 5.05513L9.2976 5.65737ZM8.51917 8.16887L9.46107 7.83299L9.46107 7.83299L8.51917 8.16887ZM8.83113 8.48083L8.49525 9.42274L8.49525 9.42274L8.83113 8.48083ZM6.33333 17H10.6667V15H6.33333V17ZM0 6.33333V10.6667H2V6.33333H0ZM6.33333 0C5.41641 0 4.66858 -0.000777707 4.06257 0.0487351C3.44489 0.0992016 2.88703 0.206849 2.36604 0.472305L3.27402 2.25432C3.46607 2.15646 3.73144 2.08245 4.22544 2.04209C4.73111 2.00078 5.38341 2 6.33333 2V0ZM2 6.33333C2 5.38341 2.00078 4.73111 2.04209 4.22544C2.08245 3.73144 2.15646 3.46607 2.25432 3.27402L0.472305 2.36604C0.206849 2.88703 0.0992016 3.44489 0.048735 4.06257C-0.000777706 4.66858 0 5.41641 0 6.33333H2ZM2.36604 0.472305C1.55067 0.887757 0.887756 1.55067 0.472305 2.36604L2.25432 3.27402C2.47802 2.83498 2.83498 2.47802 3.27402 2.25432L2.36604 0.472305ZM10.6667 17C11.5836 17 12.3314 17.0008 12.9374 16.9513C13.5551 16.9008 14.113 16.7932 14.634 16.5277L13.726 14.7457C13.5339 14.8435 13.2686 14.9175 12.7746 14.9579C12.2689 14.9992 11.6166 15 10.6667 15V17ZM15 10.6667C15 11.6166 14.9992 12.2689 14.9579 12.7746C14.9175 13.2686 14.8435 13.5339 14.7457 13.726L16.5277 14.634C16.7932 14.113 16.9008 13.5551 16.9513 12.9374C17.0008 12.3314 17 11.5836 17 10.6667H15ZM14.634 16.5277C15.4493 16.1122 16.1122 15.4493 16.5277 14.634L14.7457 13.726C14.522 14.165 14.165 14.522 13.726 14.7457L14.634 16.5277ZM6.33333 15C5.38341 15 4.73111 14.9992 4.22544 14.9579C3.73144 14.9175 3.46607 14.8435 3.27402 14.7457L2.36604 16.5277C2.88703 16.7932 3.44489 16.9008 4.06257 16.9513C4.66858 17.0008 5.41641 17 6.33333 17V15ZM0 10.6667C0 11.5836 -0.000777706 12.3314 0.048735 12.9374C0.0992016 13.5551 0.206849 14.113 0.472305 14.634L2.25432 13.726C2.15646 13.5339 2.08245 13.2686 2.04209 12.7746C2.00078 12.2689 2 11.6166 2 10.6667H0ZM3.27402 14.7457C2.83498 14.522 2.47802 14.165 2.25432 13.726L0.472305 14.634C0.887756 15.4493 1.55067 16.1122 2.36604 16.5277L3.27402 14.7457ZM17 10.6667V8.5H15V10.6667H17ZM6.33333 2H8.5V0H6.33333V2ZM9.6597 7.56338L10.0454 6.4064L8.148 5.77395L7.76234 6.93093L9.6597 7.56338ZM10.2017 6.1534L14.0449 2.3102L12.6307 0.895985L8.78751 4.73919L10.2017 6.1534ZM14.6898 2.95507L10.8466 6.79827L12.2608 8.21249L16.104 4.36928L14.6898 2.95507ZM10.5936 6.95464L9.43662 7.3403L10.0691 9.23766L11.2261 8.852L10.5936 6.95464ZM10.8466 6.79827C10.7917 6.85321 10.7643 6.88042 10.7438 6.89984C10.7274 6.91537 10.7296 6.91224 10.7404 6.90408L11.9449 8.50071C12.0704 8.40597 12.1771 8.29616 12.2608 8.21248L10.8466 6.79827ZM11.2261 8.852C11.3383 8.81458 11.4842 8.76827 11.6251 8.69831L10.7357 6.90696C10.7479 6.90093 10.7516 6.90039 10.7304 6.90812C10.7039 6.91779 10.6673 6.93007 10.5936 6.95464L11.2261 8.852ZM10.7404 6.90408C10.7389 6.90518 10.7374 6.90614 10.7357 6.90696L11.6251 8.69831C11.7376 8.64248 11.8446 8.57633 11.9449 8.50071L10.7404 6.90408ZM14.6898 2.3102C14.8381 2.45852 14.9198 2.54071 14.9761 2.60379C15.0278 2.66164 15.016 2.65806 14.9969 2.61952L16.789 1.73149C16.6227 1.39598 16.3276 1.11957 16.104 0.895986L14.6898 2.3102ZM16.104 4.36928C16.3276 4.1457 16.6227 3.86929 16.789 3.53378L14.9969 2.64575C15.016 2.60721 15.0278 2.60363 14.9761 2.66148C14.9198 2.72456 14.8381 2.80675 14.6898 2.95507L16.104 4.36928ZM14.9969 2.61952C15.001 2.62778 15.001 2.63749 14.9969 2.64575L16.789 3.53378C17.0703 2.96596 17.0703 2.29931 16.789 1.73149L14.9969 2.61952ZM14.0449 2.3102C14.1933 2.16188 14.2754 2.08022 14.3385 2.02389C14.3964 1.97224 14.3928 1.98397 14.3542 2.00307L13.4662 0.211034C13.1307 0.37729 12.8543 0.672404 12.6307 0.895983L14.0449 2.3102ZM16.104 0.895986C15.8804 0.672402 15.604 0.37729 15.2685 0.211033L14.3805 2.00307C14.3419 1.98397 14.3384 1.97224 14.3962 2.02389C14.4593 2.08022 14.5415 2.16188 14.6898 2.3102L16.104 0.895986ZM14.3542 2.00307C14.3625 1.99898 14.3722 1.99898 14.3805 2.00307L15.2685 0.211034C14.7007 -0.0703447 14.034 -0.0703447 13.4662 0.211034L14.3542 2.00307ZM10.0454 6.40641C10.0699 6.33271 10.0822 6.29614 10.0919 6.26959C10.0996 6.24836 10.0991 6.25212 10.093 6.26427L8.30169 5.37486C8.23173 5.51575 8.18542 5.66169 8.148 5.77395L10.0454 6.40641ZM8.78752 4.73918C8.70384 4.82286 8.59403 4.92955 8.49929 5.05513L10.0959 6.25961C10.0878 6.27043 10.0846 6.2726 10.1002 6.25619C10.1196 6.23567 10.1468 6.20833 10.2017 6.1534L8.78752 4.73918ZM10.093 6.26427C10.0939 6.26263 10.0948 6.26107 10.0959 6.25961L8.49929 5.05513C8.42367 5.15536 8.35752 5.2624 8.30169 5.37486L10.093 6.26427ZM7.76234 6.93093C7.68481 7.16351 7.60376 7.40349 7.55637 7.60516C7.51247 7.79199 7.446 8.13666 7.57726 8.50475L9.46107 7.83299C9.49899 7.93933 9.50114 8.0248 9.49968 8.06307C9.49841 8.09656 9.49399 8.10246 9.50334 8.06267C9.51226 8.0247 9.52813 7.96797 9.5558 7.88006C9.58325 7.79283 9.617 7.6915 9.6597 7.56338L7.76234 6.93093ZM9.43662 7.3403C9.3085 7.383 9.20717 7.41675 9.11994 7.4442C9.03203 7.47187 8.9753 7.48774 8.93733 7.49666C8.89754 7.50601 8.90344 7.50159 8.93692 7.50032C8.97519 7.49886 9.06066 7.50101 9.16701 7.53893L8.49525 9.42274C8.86335 9.554 9.20801 9.48753 9.39484 9.44363C9.59651 9.39624 9.83649 9.31519 10.0691 9.23766L9.43662 7.3403ZM7.57726 8.50475C7.72998 8.93301 8.06699 9.27002 8.49525 9.42274L9.16701 7.53893C9.3042 7.58785 9.41215 7.69581 9.46107 7.83299L7.57726 8.50475Z" fill="white" fill-opacity="0.5"/>
</svg>
